<mxfile host="65bd71144e">
    <diagram id="2aRZFx95_6zSQY-OhFWS" name="ページ1">
        <mxGraphModel dx="204" dy="452" grid="1" gridSize="10" guides="1" tooltips="1" connect="1" arrows="1" fold="1" page="1" pageScale="1" pageWidth="827" pageHeight="1169" math="0" shadow="0">
            <root>
                <mxCell id="0"/>
                <mxCell id="1" parent="0"/>
                <mxCell id="16" value="" style="shape=image;verticalLabelPosition=bottom;labelBackgroundColor=default;verticalAlign=top;aspect=fixed;imageAspect=0;image=data:image/png,iVBORw0KGgoAAAANSUhEUgAABX4AAANkCAYAAAAA0TKqAAAAAXNSR0IArs4c6QAAAARnQU1BAACxjwv8YQUAAAAJcEhZcwAADsMAAA7DAcdvqGQAAGncSURBVHhe7d0JnF11eT/+70wIE/YthLCLQQQFYkADmCAoMaJgxA1FYikKamslpQWr/uvSwk/7+0FLQa1LUKqCuFE1BIkxYWmwSBTQBOuCUZA1BJA9iYHMP8+Zc4aTm5nJvZOZyeTL+93X6T3bPefM+c4dnE+eeU7bnnvu2ZnCDrunu6Z8MHWseDIddMj+afOnl6f2n89PI+78eWpb/mixCwAwuHbccce01157pba2tvSb3/wmPfXUU+UW2HSNHj06Pf7442n16tXlGoC1tbe3p5133jmNGTMmjRgxolgXPzfuueeetGLFimKZPMT/xgE2XPzc3GabbdKyZcvKNTwXPf3002nlypXF9MQTT6RVq1aVW7oUwW/n6Oenu4+ekUa3PZX2So+lvzrhFWncTlun54/eJu205eblrgAAAAAADAcPPfRQWrJkSfrd736Xvv3tb6elS5emRx55pNyaUtvuL3t15z2T3pf2an80ve4Fo9OM1x6a9thp23IzAAAAAADD2b333psuvvjidP3116f7778/dXZ2phGPv/X/fmJ0ejKdsP+O6bzpr0rbbtlR7g4AAAAAwHAXrT+OOuqodMcdd6S77rqraP/Q3rF6Vdpr5PJ0xrEvLXcDAAAAAGBTc/rpp6exY8emkSNHpvYdnnk8/eXLX6C9AwAAAADAJmy33XZLb33rW9PWW2+d2ne695b0ou3KLQAAAAAAbLL23Xff1NHRkdpHbb9T2nfcuHL1BnhmdUqPPVUuAAAAAAAw1MaNG9cV/D499oVpp512Klf3w+rO1Hnjr9LTf/2ZtPrHvyxXAgAAAAAw1CLr3WyzzVJ76uwsV/XDfQ+npz/85WLqXHJvap+wb7kBAAAAAICNpT31M/eNKt9V77uoeI2q37Y9dk5pzPblVgAAAACAgXXWWWel7bbbLm2zzTY9TrEt9hluDh7/kvTfCxaUS+uKbeNfMqFcGhjtW/9mXjnbvNU/uiU987GvpvSnJ8o1KbW9YLc1R2tLj/x5dbrizpXpvuWryy29O/jgg9camBtvvLFYf8cdd6y1PqYzzzyz2FZ54xvfuNb2f//3fy+3rCveG/sDAAAAAJuumTNnpp/85Cfp7rvv7nG69dZbi32Gm8985tPpXe96V4/hb6yLbZ/+9EXlmoHRPvLRu8vZ5qz+2W/T6vO+kzpXrirXdHlqv73S9x9+Jv3TL5an6+5flbberK3c0rfFixenxx9/PM2dOzdNnTq1XJvSPvvsU6yvpgiDIyiui/dU2//2b/+2XLuu+fPnF69xDAAAAABg07R69eq02267FZW9PU3Pf/7zi32Gm1cceWT68pe/vE74W4W+sS32GUjt5WtTOh9+PK3+l2+lzhV/Ltd0+dPmHemLT2+ffvCb5emppzvTdiPb0lZNBr+VI444Ik2ZMqW76rfRd7/73eKJdN/5znfKNc2J4x1zzDHpqKOOSt/73vfKtQAAAAAAQ6cx/B3M0De0FPyu/tIPU+cDj5RLXe7fcqt0/qGHp99s82x/3y1HtkfXh37Zddddy7l1RXgbJdut+Na3vpUmTZqUTjjhhOIm1kWLiAiSq3YR9XYSUV1c36ZVBAAAAACwIerh72CGvqGl4Ldty45y7lmbr34mbb0qKoCfTXo7+/HAuAhZlyxZkp73vOeVa9a1xx57pDvvvLNcSkVriCqY7a1S+OKLL05vectbiuNGxXDjfj/+8Y+720XEvvXtl112Wfe2uLZWq40BAAAAYLiqcrX1TWyaWgp+2//y1ant+WPLpS47rliR/u6Wm9IxKx9Om5Vlvk+s6kxPr24u/T3ooIOKb6BTTz01LVq0qFzbs6j23XvvvcultXv8RquIRhHUnnbaaeVSSieffHJRAVx3wQUXlHMpnXPOOemmm24ql9be9rGPfawIiQEAAAAgB1Wutr6JgVNv71BV/tZ7/g6kloLftNWoNOJj01PafutyRZeO1avTiU8/mD58wObppTttlpav7kwPrmwu+K0e7tbMN1HcjMMOO6xcWr+o2I0q3upfJ0499dRiuS9RVdybeugMAAAAANCsxp6+jT1/B1prwe8aUfG72Sf/cp3wd/Ufl6U9th2ZTt9vVPr4wVuk7Tdv+dB9ip678ZC2nip7e3LHHXekefPmdYfK1RQPkKu3bKjmY/+PfvSj6aUvfWmxHOoPg4vQuJXQGQAAAAAYWO3t7emhhx4ql9Z17733FvsMN709yG0ww99+3YW2A5+XNvv396a2vcaUa1Lq/M093c19d+hoT6NGFLP99oc//KG7UjemaLVQb72wPhHa1ts8VKLdQ1QCV6J9Qxw/Wk5ccskla/UYjn7C1fmjDUSzoTMAAAAAMPBOP/30NGHChO7MrnE64IADin2Gk87OzvSBD5yxTuhbqcLfv/mbD5RrBkbb0Ucf3XnllVeWiy167Kn09Gdnpc65t6S2zUakEZf9Q2obs325cfiLb4beWkxEhfGsWbP6fNgcAAAAAMD6RPjb1tb1fLSh8PrXv75/Fb/dtt0ybfbht6cR//fdKe29S1p9y+/KDQAAAAAAhKEMfSsD0vCifeIL02af+5vUfugLyjUAAAAAAGwsA9fpeORmqW3n7cqFTUNvbR7CokWLtHkAAAAAADZJ7Ztvvnk5CwAAAADApi4y3/annnqqXAQAAAAAYFMXme/AtXoAAAAAAGBYEPwCAAAAAGRG8AsAAAAAkBnBLwAAAABAZgS/AAAAAACZaZs8eXLnqGkLykUAAAAAADZlK2YdqeIXAAAAACA3gl8AAAAAgMwIfgEAAAAAMiP4BQAAAADIjOAXAAAAACAzgl8AAAAAgMwIfgEAAAAAMiP4BQAAAADIjOAXAAAAACAzgl8AAAAAgMwIfgEAAAAAMtP+3ve+t5wFAAAAACAH7Q8ue7CcBQAAAAAgB+1X/NcV5SwAAAAAADnQ4xcAAAAAIDOCXwAAAACAzAh+AQAAAAAyI/gFAAAAAMhM2+TJkztHTVtQLm64045K6U2HpjRyRLmiH269M6UPfqtcAAAAAACgaStmHTnwFb8bGvqGCXt3BcgAAAAAALRuwCt+f3R2ObOBZv8ipQvnlgvDRE9f26pnUvrjQyld9+uUvnFTubJ06XtT2mXbcqHmyZUpPfxkSrcvTelTs8uVDSL4ftvEcqEHSx9LafoXyoUm/fs7Unrx7ind9XBK7/pSuRIAAAAAyMqgVPzmLoLeCF2rKULccWNSevcrUpoxtdypQX3/mOIYe+6Y0qsOSOnb70/p7YeVO/Ygjt/4/pgefLzcoQXPG9313jj3S/cpVwIAAAAA2Rn0it/Gyt1qe2/rK8O14jeC08ZK2wh8jx/fFdKecFG5co2q4vfV55Ural57UEpvOKQrNI4g+NM/SunqxeXGNaqK34Hqd1xd45f+uyukvvF3KX3su+VGAAAAACAbKn4HSATUSx5IaauO5nsTR8j7vq90BbvRE/mtfbR1GAgH7NoVTEc7imj1cMBu5QYAAAAAIDuC3wHy2PJypkVRzRuBbLRfiCrgwRBtHfbaKaU7Huxajt7C22/Zd4sJAAAAAGDTJfgdBn57f9frS/bueh1or35xV1XxT5Z0Lf/ol12vh4/rem30/07samsR1csRDn/53V3LMUVP4g8fX+5Y05/3AAAAAACDY9CD3+grWwWAMVV6W78piora/cZ29er9+R/LlS347dKu1x227HodaC/e/dk2D+Fnf+jqVRzX3Je9dkzpLyZ1zUdLil/e09XOIh5KF0FvT/rzHgAAAABgYLW/6Y1vKmfpj3ho2j+8rivcjEA1poE0Ye+1A/JqaraXcLSPiAfMVW0eKr9/oKsKOK6/NxFo//C2lN71pa6WFH/79a4HwkWIHNfVU2uK/rwHAAAAABg4W265ZWofvfPocnFwzP5FSq8+79mp0tv64S5C1HoAG5XL0S83qlsj4BxoEZhGdW7j9MSKcof1OGLfrteqzUPlxt91vcZD33rzx4e6HlxXF8H2Tb/vmq+OXdef9wAAAAAAA+fMM89M7V/84hfLRZoR7RwieL3r4a6wNwLUf5vTVd3aX1Et3Jvo/zv9C+tOVduG9Tl4z7XbPFSuXpzSI0+lNG5MV5VuT351XznTYNnjXa/bbtH1Wtef9wAAAAAAA8vD3Vr08JNdwWvVyiCqfCNE3RD7lEXXt9zZ9TpQ4iFrESrHVK9SrqaoVA7x8LeeRGDcl55C3P68BwAAAAAYWILfjax6MFxPVbkb6uj9u14b20TUp3DI3l2vrXqwrOJtRX/eAwAAAAA0b8XKlYMf/EYP3HqVaaW39c81fzu16yFr1/66XDGA9tqpK1BubBNRn6LdQ1T+9vTQtQN3L2caVOvveaTrta4/7wEAAAAABpaK343ktKNS+vb7ux4Wt+SBdR+ItqFmlIHyHQ+WK3rxq3u7Xl95QNdrXVQiR7uIuliuKpR7uub+vAcAAAAAGFgDHvzGw88Gwvp6xW5KLn3v2tP3zkjpbRO7Km3j4XDv+0q54wAav2fX6233dL32Js4fIpht9MeHUvqLSSl9/pSU/t+JXa/vfkXXtt7aUvTnPQAAAADAwBrw4Pe/bt7w8PfWO1O6+PpyIQNR1VufnljZ9TX+25yuh8MNtOgbvOeOXeOwvvsYD6a76+GuB8BFFXLdz+5I6Ye3pTR2u5Qm7J3SuDFd+371x72HuP15DwAAAAAwsNomT57cOWragnIRuip1I7T95sLmA/j+vAcAAAAAGHjv3+/7evwCAAAAAORG8AsAAAAAkBnBLwAAAABAZgS/AAAAAAAZufCiz3i4GwAAAABATt6/1QdV/AIAAAAAZGX3cYJfAAAAAIDcCH4BAAAAADIj+AUAAAAAyMh9N3xH8AsAAAAAkJNvPfQqwS8AAAAAQE5mvOFFgl8AAAAAgNwIfgEAAAAAMiP4BQAAAADIjOAXAAAAACAzgl8AAAAAgMwIfgEAAAAAMjKqo0PwCwAAAACQm7bJkyd3zpu/oFwEAAAAAGBTdu01c1T8AgAAAADkRvALAAAAAJAZwS8AAAAAQGYEvwAAAAAAmRH8AgAAAABkRvALAAAAAJAZwS8AAAAAQGYEvwAAAAAAmRH8AgAAAABkpm3y5Mmd8+YvKBcHx9NPP5OeXrWqa6G9PbW3tXXNP4es7uxc8/9WF/ObjRyZNttsRDG/qTKmxjRHxjQ/xjQ/w3lMb7nl5vSpT56T5s2bm5YvX16uBXju2mKLLdKUKVPThz/y0XTIIYeWawGAoXDtNXMGL/hdveaXspV/Xrnm99IRqW3N/7G2zjX/t3r1M6lj844192jTKLw2pn0zpvkxpvkxpvkZLmMaoe8xrzoy/cu/nJ/ecfI70zbbbFNuAXjuevzxx9PXL/ta+tCHzkrzr1kg/AWAITRowe/y5SvSiBGbdlXVUHrmmWfSFluMKpeGJ2PaGmOaH2OaH2Oan405pm99ywlFVdt73/fX5RoAKl/4/H8Ufw3x7e98r1wDAAy2r/znFwc2+F2xYkVRkUT/RMXSqFHDK4QwphvGmObHmObHmOZnY4zpDttvmf5411KVvgA9iMrfvfbcJf3pkafKNQDAYIvgd8D+JvKp5cv9krqB4v7FfRwujOmGM6b5Mab5Mab52RhjGj19hb4APYufj3qfA8DQa998zIvL2f5b/tTytNmIzcolNkTcx7ifG5sxHTjGND/GND/GND/DZUwBAAA2lvaDxm1XzvZP/FI1YjO/pA6kuJ8b85dVYzrwjGl+jGl+jGl+NvaYAgAAbEztHasfLWdb99RTT/kldZDEfY37O9SM6eAxpvkxpvkxpvnZWGMKAACwsbXf/ctflrOteeqp5WmzzUaWSwyGuL9xn4eKMR18xjQ/xjQ/xjQ/Qz2mAAAAw0H7H58o51qwevXqNGKEB88MhbjPcb8HmzEdOsY0P8Y0P8Y0P0M1pgAAAMNFe/nakngia1tbW7nEYIr7PBRPwDWmQ8eY5seY5seY5meoxhQAAGC4aDn4XbVqVRo5cvNyiaEQ9zvu+2AxpkPPmObHmObHmOZnsMcUAABgOGk5+F25cmU5x1AazPtuTDcOY5ofY5ofY5of9x0AAHguuO2hFoPfZ555xgNoNpK473H/B5ox3XiMaX6MaX6MaX4Ga0wBAACGk98tuK214PfPf/5zam/vV1tgNlDc97j/A82YbjzGND/GND/GND+DNaYAAADDyb7pd60Fv/ribVyDcf+N6cZlTPNjTPNjTPPj/gMAAM8FbZMnT+6cN39Budi71atXpyefeDJ1jBpVrhk6T65Ymb4252fphp8vSfc//Fix7i2vmpDed8KkYr4vX5uzMH3lBwvTv814Uzp43G7l2k3TyhUr0lZbbzVgVWIba0ynnPGZcq7LvnvunF7ygj3SO499adpqVEe5tm+5jGtuY9rb53L6J75afHZPed3ENeM8sVybp1zGtDcPPPx4+tx3F6Rbb783PfHUirT1lqPS+980Ob164v7lHn07+zPfS7f+9u4076K/KZb/6Us/SM/fffSw/r7Y1Md00ZJ7099d+F/l0rOqMXguGugxDaM62tKKlZ3lEgCN/JwEgKF19gmva77iN35RbR8xolwaWp+4+Or0nWtuTZNfMi6d857jivAoAoehFgFFTBtL3P8Yh4GyMcd0wn57FOMY0767jy7G9+RPfK0IlQZDBMURPg43OY1piH+caXTjbX9IT6x47vxZdW5jWhf/CPee//fNIvR989EHFz+Pjz38gPTE8v4/LCuOtbT2uR+On9VcxjTGqvq5G1Mz4vP7vvO+WYTHg2Vj/Ld1oMcUAABgOGop+B2xkcKHqA6LoDAqCY84cJ+iMuysdxxTbh06C37x+/TE8o0XYMX9H+jwYWON6cH77laMYzWWX/iHtxdhflQSDoZFv7u3u1p8OMlpTI8c//ziHkdQVDf3pl+lCS/YtKvtW5HTmDZacs9Dxec0Qt/47MbP4/i5/Majxpd7tO57/3LaWj/Ph+NnNZcxnXrYAd0/d2Nqxu/uXpZ+d9eycmlwbIz/tg70mAIAAAxHTQe/nZ2dA/onka0Yu+O26fa7H0xL7nmwXLO2qEKLaqH4c/OYzv/6/GJdbz7/vR+nEz50cbFv/Nlx/bjxvnh/tT0qz6LSqfpT9gihY34wq596E/c/xmGgbMwxbTRu99FFcBgBQGWgxjWWY9yq+agoDLE9KtliXbyvWj+UchrT+HP9+KxG0FuJCu4Y04P33b1c86y+7n+MX6yPMa2PWbxWYxzfD9V+lVa/ZwZDzp/TsTtsU7z+ePEferyv1c/KGLe49zEf4/Wjhb8u91hX7BPjWM339Fnd2HIe0+rzUv21RYxVLMc/4MS4REudEK0i6uMUn93q8xfjHu+vf/Zie/2/rTHf+NncmP9tHegxBQAAGI6a/s1zY/6C9E+nv654fe///Ubxi2P9l8nw95/+XrpvzS+d8WfHMd2w6A/pc/91Q7l1bRFIzPnJr4qelNEf9vHlK9PHZz77J6ZxrHh/VLTF9mgvMW73nYr5EP1oYz7WbQwDHT4MJxEchipQGqhxjeUYt2r+NRMPKEKKOP6uO25TrDvltS8rAo6+AqrBktOYvvmV44ugtxrDHy/+fREGj9uj6/5Xmr3/UV0afUijOjG2xT5RPRzv2WXNe6uQsNLK98xgyvVzOmbNPf+H6VOKCtBozdJbsB6fxfjHnBinsTttk/7vpfOaCvRi/8bP6nCRw5hGeFsFr1WI+1dvPLLo0/zVOQuLsYzPWPwjXFHN/cbJRXuI8P43H1ksV+J7YOrE/YvPZ/RZv/9Pjxc/w2Pc4rN3/0OPd/8Mrj7vt9/1YPH9U31+N/Z/W4fTZwsAAGCgHXjCCc0Hv2Fj/VlkBAiXfeKdRU/C6AcZAXAVEEVVUvwCespru/7sOKbJB+9TBA+N4pfa6CUbv8jGg4jil9U3HzW++LPiCCVi6jrWy4qgKbbHnzHHA8eqB4hts0XXfLMPIRtIg3H/h+Ofusa9HchxjeUYtxDzEV79138vKkLFs04+plgXf6peVKsOcfCb25hOPazrAV9zb+q6j1dc+4v0msPXfehXs/f/r970bNB0xfW/KPb5+LtfV7wnPqPRAqbSyvfMYMr9cxqfsa9/4pTuexsBcOM/xsVnMcY0xumf14xX+MXta4f0PYn9Gz+rw0EuY1rv8RuhbYh7HP/Ni7GMfySJftzxuQzx394IaIv5PXYulisR1NYf6Fd9JuM1Pnsv2GN0d8uOHy78VfF5j3/ErX5Gx74b87+tw+kzBQAAMBii2KXp4LetrS2tenpVuTT04pfB+EUxAuD4hfOza35BjcAv+g+Gj37xqu5Kpt6CnuhPGSIkrPaNSrRKFUw0VicOF3H/YxwGysYe00bx5+MR7IWBHNeeLCmP/4YPzux+z8boK5rbmMbnNKoFf7jw10XoHve0p6rNZu9/PQSKUHfX0V3fHz1p5XtmMOX+OQ0RFla9ucPnv7t2VfVWo0aWc137bupyGdN6j996aFv9w0t8XiIEbiZ8rQL6SlT1xl9eRCVxtPeoV+NH3+ZQD443toEeUwAAgOGopeD36T9v/PAhfiGddNA+RfVQBH77liFtVDDFn4nWp0bVn5BGMNW4b2yrQselDw2/h4CFuP8DHT4MhzENUcEdwV5VHTqQ49qTKtyPP0mu71//U+ahkOOYRrgUY/kf/7WgqMjtKfjrz/2Pz2e08KirL7fyPTOYcv6cNoogLyo7G1tu1DVWA2+Kch/T717/i+IfXuLzGlX6PbXvWJ+/u+i76YafL0nvfO3E9K8fOGGtavyqajjC4eFioMc0F7+9/fZ03LQ3pIcffrhcMzzFNcb0pS9fUq4BAAB60nTwGw9Cefrpp8uloRUVRPGQn6ggjNcrrltUhEDxZ6EH77tb0Z+weNhQGQJFcFtVFNZFaBy/jEa7iCrcjff8z5r3xraXH7xPcdyoJo5fhON80cOy7r4Hu9oHbIwwI+7/QD4QaGOOaVSAxVjGFPc4KnTjz5CjEi0M5LjWRTuAGL+XH7RPsVx/EFlUfD+5YmifLJ/TmFbiz7zjcxThb/Xn5I36c//jHwXimNVDoeI1liutfM8MphzHtFLd9/j5GJ+lqPCM0Dc+u3XxMzr+MSf2Oa/8Gdpqv97qszoc5DKm8Xmrfu7GFEFsTF+5+qfpLa+akM5+xzFFq4evzflZ+Y5nxeczxqQ39Yr936/572M8kLUSFcXhY1/6Qff3RZy/bqj/2zrQY9pfVdD6fz71L+Watc2aPbvXbc9VcT/edMIJ6apZ30/vftep5dp1VeFwfYr7/VwW966n+wIAQL6a/q0nfkFqa9841TFbb7F5ESTEg2niNR7uVD3wLYK9qC6KPzuNP/Eu9rn+F722a/jEaa8telNG0Bj7fvY7C9IuO2xdbItj/dsZbyyO/9krFhTbl9YqlOKhNPFLcazfGOL+D3T4sLHGNMKieIhQTHGP497Gn45XBnJcQ1SSRhgZx4ogMP7RIKpN42FDsX9MEVaM3WFo/yw9pzGti5A2Qtj6n5PX9ef+v+no8UXAGH+O/rGZPyiqCOtVha1+zwyWXMc0xPjE5zV+PsY9jgrPGJN6L+YQ66Jfc+zzxJMri7FutuVD42d1OMhlTOOzU/3cjSkeyFYF8+889qXFGMWDTaNtThW6x+cuPmexf/0fahrV//u45N6HikrwSlSGV5X38TM6xrZuY/y3daDHdEP9z403pht/8pNyib7cc++96UUvau4fki741/OLgDimmD/z78/aZO5z9Y8CA+297zm9+55UUyvimoYyQPePHwAAG6Zt8uTJnfPmLygX+/bYY4+lESM2SyNHPtu/kaGxatWq9MwzT6dtt+29x2l/GNONx5huuOmf+GraequO9Pmz31au2bie62MaYWGEd9Fuo6re39T5nOZnsMZ0VEdbWrGys1xqTgRoEUZGGPeFL85MX/vPS9KOO+5Ybu0KvRYvvi39fx/+ULlmcFXX03gdw0kEj//4kQ+nIw4/vFzTs9gvwt79XvCCck0qWkPcv3TpkN3PDVGNRavBbF8iQD3ooAPTtOOPL9e0rqf7OpiG+jPA4OrPz0kAoP/mz/tB8xW/oaOjIz3+xPDsf5u7uO9x/weaMd14jGlror1AtBaIcDH+VPyfvvSD4s/L31z+GflwYEzzY0zzM1hjuiEiiHv5EUekz33hi+WankXv3QjeGnvwRqAXAVkl5v/6A2cU1a2xf0xV1WRsa1zXk3j/+var7xPzdY3X0Ne5QvW11af611kdJ5z7yU8V861Wnu48Zu2/AIkguH6++j2s1O9XTHHOeG0cg/q9jqmxsrjx6+vrfsR1Regbqv17uhfV1Hjv+6M6Zv26q681XqvtIa6tvm98LXHN1f2s38f690hMPY1Z4z2u3h/vjX8QiYr4WD8QXycAwHNNS8HvZpttlkYMoz+NfC6J+x73f6AZ043HmLYmWjb8/Pa7i4rS+FPx+8oWIb21k9gYjGl+jGl+BmtMN9Rfvfc9A9ry4c4770z/+7+/6v5z/jh2FZzV1/UUdr7zL09N5/7TJ9baL0K9ugji3nnyO7r3OXTChHXCzPo19FWxGWFgnDMqeavjxXysq4LCqPCN9aHar9Wq02UPLEtjd9mlXEpF9W91vqhyjpCxHkzGvYl11T4xVYFsXez3tcu+vtaxIpyuH6vx64vK295E7+Koqg3V/lUFdpwrjh3nqLbFvY/x2BBxf6PyPL6Oyr9f9OnimuM+1+9/1UKjXnX9X9/7XtGCI9ZXFcXx9R/7mqnd1xnHarx/8X3VeI8r//Hpi4prin8UifWxDABAa1r6rXPEiBFpyy23Sg8//FC5hqEQ9zvue9z/gWZMNw5j2rroCxwtHeZd9DfFFPPDKfQ1pl1jFGOTS5sHY5qfwRzTDRXBXoRcEeoNlPrDz+KBaBHE1v/MP9ZFGNoogr16q4cI7CLYq0T4GO+tB39vPOENRUDcWAnb1wPYKt/+zhXrHC/mY92CBTeUazZMXHN8DXGdlXoYHV9vBIy//s1vyjWpCCTja6+rAtm62C+C8kocq37t1T154X77Fa+hv+0Wqmuqj0/c47333rupfzSI91eVtTHVA/3qmuJexbT7brutNSZ9iXvXuG8ExvWvs9peBeLxGmMSIXZdf+8NAADrarncKP48sr29LT3zzDPlGgZT3Oe434P5Z6nGdGgZ0/wY0/wY0/wMxZhuqAi8IkBbX1uEZkQQWBdtDuLYjaLqtdHonXYq57pUgWUVYEbP1Qjs6gFiVLSGBx969h8zGq+hNxEYH3nk2g+JDHHNN996a7nUuqolQUxVVWk9MA31ryGuo1KFk/WwNjTem2q/+Prrx4r7U93bKlSOfTZkbKtz9RTGRkgb1dXr0/hwt8Zg/m/P+EBxr2KKKvRm1Sup6+Ka6/elLkL2+B5pHBMAAAZOy8Fv/Hnk1ltvkx5c9kC5hsEU9znu92D+WaoxHVrGND/GND/GND9DMaYDYaBbPgyWqGitB4jVNFQP/WpG1ZKgmuqiojWCyPo+PQXjzYaS9dYL1VSvKI75WHfPvfcW521snTFc1IPtDQ1kI+SO8L1+TxpFYA0AwODpV4PBUaNGpa223jote3DdPw9k4MT9jfsc93uwGdOhYUzzY0zzY0zzM5RjuqEibFtfy4d6VW2IMHEgNR7/N7/97VqVmVHd2VOlcH9F4FpvsVCJNhTRv3YwRNVy3Od6UF2/j1UAWlXZVuJe1FX7Nd6z3kSf2giboyK4sS3G+lTX2nhNIa49euxuqH/8+CeK+xLB/oZWnsc/YNRbYzR+vfu/8IVrVVkDADDw+hX8tre3p2222SaNaG9Lf/pTa/+jlebEfY37G/c57vdgM6aDz5jmx5jmx5jmZ6jHdCBULR/iz+3rIniN9dETtxKVq9G7dyDFQ70qEdZFCB0P6apU/Xzj3HX9DQrf+pY3F19rvco55ht78g60CH8rjfexutf1h5FV96Iu9ouQtPGhZXG8KqCN1/q9eqgMiasgvSe9Bc8Rysa56iFqVT3cbD/e3lTXGN9/0QKip8rz+AeAnkL63tT3/dwXvljOdYkgO45XPXSwUr9XO48eLRwGANgA/f4NaOTIkWmHHXZMq1b9Of3Jw2kGVNzPuK9xf+M+DxVjOniMaX6MaX6MaX421pgOhN76q0bLgAjC6j1Te2pRsCGiz2t1/OhLGw8Tqz9wKwLLaG0QYW21X0wR4PZHBIBRGRqhanWsmI/WAH2FoxuimfsY+8S6ap+ohm18EFmIkDTC32q/mCJUrip0I8St36v42no6Tl09UI73VEFvjEOEv/WewlF9HZXEzWgcs5iqYDq2xdhXYtzjWuvh8ztPfkf3MdbXjiTGtH6+nr4/4rqj3UO1T0xRCVyJMDvC4VjfGBADALB+bZMnT+6cN39Budi6FStWpAcfXJY6U1vaZUzPD3ageUsfWLrmTnam0aN33mh/kmpMB5YxzY8xzY8xzc9Qj+mojra0YmVnuUSuIgSNMDaC28EKpSFXfk4CwNCaP+8Hqf1FEzbsz8Lil6mddx6TRm42It31xzs9nbyf4r7F/Yv7GPdzYwUPwZgODGOaH2OaH2Oan+E0puQnWhfU+x0DAMBw1r7dZivK2f7r6OhIO+00Ou2w5n8E33vvPWnp0vvLLTQj7lfct7h/cR/jfm5sxnTDGNP8GNP8GNP8DMcxZdMVPYvrvXSj2jdaF0S7AwAA2BS0nfCKyZ3f+FH/Wz3UrV69uvhT1ccee3TN9FjafPPNiz+x3Hxzv3g1+vOfVxZ/0vvnP/85bbvttmum7YqqpOH24Blj2jxjmh9jmh9jmp/hMqb+hDk/Vd/buuhbW/XuBVrj5yQADK1o9bDBPX578vTTT6eVK1emJ598oviF9ZmnnykeqrLFllumLbbYsqjAiV/I2traynfkq7Ozs/gFPu7H8uVPpeVPPZVWrVqVRmw2ovgFdautti7ux2abbVa+Y3gyps8ypvkxpvkxpvkZ7mMq0ADom5+TADC0iuD3qMmTO384wMFvJfrsVb+0rly5oniNipxYF7+8xS9xuYtfxuOX8vhFNCq24pfSjo5R3b+cjhgxotxz02BMjWmOjGl+jGl+hvuYCjQA+ubnJAAMrSL4fd/bXtv571/9Qblq8MQvptUUv6A+F35JrcQvq9UvrNWUA2NqTHNiTPNjTPMznMdUoAHQNz8nAWBoFcHv2Wef3XnOuf+vXAUAQKsEGgB983MSAIZWBL/tC39+T7kIAAAAAEAO2p9ZvqKcBQAAAAAgB3k0PAQAAAAAoJvgFwAAAAAgM4JfAAAAAIDMCH4BAAAAADIj+AUAAAAAyIzgFwAAAAAgM4JfAAAAAIDMtG+103blLAAA/bHFFlukxx9/vFwCoC5+PsbPSQBgaLUfvN/ochYAgP6YMmVq+vplXyuXAKiLn4/xcxIAGFojDtx1i0+89s1/US4CANCqffd9QfqLd56Udth+h/TCF+6fOjo6yi0Az11R6fufl3wpfehDZ6WZF/9n2nXX3cotAMBg+8Pvb09tkydP7pw3f0G5CgCA/rjllpvTpz55Tpo3b25avnx5uRbguSvaO0Sl74c/8tF0yCGHlmsBgKEwf94PBL8AAAAAADmJ4Ld9zMhyCQAAAACALLSPO/SQchYAAAAAgBy0P7py83IWAAAAAIActP/vrT8pZwEAAAAAyEF7+QoAAAAAQAY6OzsFvwAAAAAAuRH8AgAAAABkRvALAAAAAJAZwS8AAAAAQGYEvwAAAAAAmRH8AgAAAABkRvALAAAAAJAZwS8AAAAAQGYEvwAAAAAAmRH8AgAAAABkRvALAAAAAJAZwS8AAAAAQGYGLfi988470suPeGm6eOYXyjUp/fKXt6VRHW3p8ssvK9dsmuL64+uIr2ewXXvt/OJcP114U7kGAAAAAKBv/Qp+I4jsbRqKMLRRFcTWpwid//mfPlYE0MNVXOff/92McgkAAAAAYGD0u+L3ta89Ll3yn5euM+0yZpdi+957Py/9z40/S6ed/t5ieSh86l/O676Ot5749jRnzg/SC/fbp99h9AUXnF+ExxvTK195TFqxsjO9bOJh5ZrmPLhsWXHtm3p1NQAAAADQun4Hv89//rh00kknrzON3nnnco+hN3Xqsd3XceaZZ6XLv/GddMghh6Z/+7fzyj1a8+EPnZ0effTRcmnTsvSBpemTnzynXAIAAAAAnkuyfrhbVB1H5e9ll361XAMAAAAAkL9BC35bfZBbPMTs3e8+pbtHb7QpiHYFG2qbrbcp57o8+eSTxQPn3njC8b2eq+oZHD772Yu69+upZcTs2bO6jxV9hQe6tUJ1LY3njvX1+xW9gquvIeYPPeSgYv7Uv5zevU8lrjfeCwAAAADkaVhU/EYv3dceOyUdeOBBacGCn6TvXPH9dOutt6Rp015bBLUb4qqrrkwnT/+Lcimlj330I+nLX56Zjjvu9cW5PvOZzxctEf7hQ2eVe6T06ilT0823LC7m470xH9PznrdPsa5yxXe+lb773SvSGTPOTFfPmZcOeNGLi6A1QuzBFMF1nOeIw19eXFf0NP7975cU7R1CXE/cwxB9j6vrBwAAAACeG/od/NYrYaspKk1bFZWs0Us3gsroyxsPMTv++Glp5sxL0i233Jwu//ql5Z6tufPOO4pK3quvviq9771/Xa5N6YADXpR+NO/64qFzca54jfA32kHEe0L0KX7xiw8s5rffbvtiPqatttqqWFe58493posu+o/iAWwxxXyYfeWs4nWw/M3fvC995CMfLa49rit6Gn/3e7O7g+locbHPPs8v5seO3bX7+iux75e+9JVyCQAAAADITb+D39e+9rii0rQ+Hf/6aeXW5s2dO6d4AFuEvXURvr7//WekX/3qf8s16xftDaoQ+oX77ZPmzPlBUYkbAW8lwtLGAHf8+JcUr0888UTx2qzp0/9irWPFfFxzhOKDKe59VEQ3tsJo/LoAAAAAgOemfge/z3/+uKLStD5F1Wur7r7rrqKyt145XE2tBqjR1qAKoaONQ1T29nRN0Yoh2iVEhXL0uj3yyMPLLa0ZM2aXcm5oRbXv0qX3pz32GFNUNf904U3lFgAAAACAYdLjt95Ht3GKfrXNmjr12O4QOqp8Gytgo19wBL3RT/jee+9JL33ZxDRlytTufribivjaItSueiFHcB0h9ob2QwYAAAAANn3n/eu/b/zgd7vttku/+t9fdvehbZyiX+1AmTXre0Uv39/89g/pYx//5+6QeJeNVLm7ISLUjvYY0a83AuCojh7sh8oBAAAAAJuGjR78HvmKo4pWD7NnD+4D0epGj965nOvyjW98vZxbW1QiP/LoI+XS8NFY2Vv1R3788ceL11A96O3JFvsWAwAAAACbtve88ZCNH/xGD954INpb3vyGdMEF5xdVq9Gz9vLLLyv61/7yl7eVe264sWPHFq8f++hHivPEFC0Souq4J3vvtXdRIRzXEvveeecd5ZaB8/vfLymO3zj19XW/espRRY/iuE9xXXGfwsEHjy9eQ1QEx0PzvvzlmcU+cczKG084vmh5AQAAAADkZ7vnv2J49Pj953M+WTyQ7b+vv67ovxs9a+fNm5t222337srVgRAhc5wnwtY4z0UXXpBe+apj0pvfcmK5x9r++q8/UITSp/7l9PT/feQfyrUD6+qrryqO3zgtWvSLco91vfXEtxeBbtyn+DpC9EOO1hh1My/+z7TLLmOLfb71zcvLtQAAAABA7tomT57cOW/+gnIRAAAAAIBN2bwfXTU8Kn4BAAAAABg4gl8AAAAAgMwIfgEAAAAAMiP4BQAAAADIjOAXAAAAACAzgl8AAAAAgMy0H3b4EeUsAAAAAAA5aH/ykT+VswAAAAAA5KD9tl//upwFAAAAACAH7R0dHeUsAAAAAAA5aJ8wYUI5CwAAAADApq6zszO133rrreUiAAAAAAA5aF+xYkU5CwAAAABADtrLVwAAAAAAMiH4BQAAAADITNukSZM6519zQ7nYnG998+vp4ou/kG666aa0cuXKci0AAAAAAAOho6MjHXbYYem0096bTnzbO8q1zfnR3Nmp7a9OP63zgs/MLFet30c+fFa6/vrr0kc/+tE0derUtMUWW5RbAAAAAAAYCMuXL09z585N55xzTjrqqKPTJz91frll/SL4bd9y2+3LxfWLSt8IfRcsWJDe8IY3CH0BAAAAAAZBZK+RwUYWG5lsZLOtaP/JT24sZ9cv2jtEpa/AFwAAAABg8EUWG5lsZLPN+tNjT7b2cLfo6RvtHQAAAAAAGBqRyUY226wdtt2qteA3HuSm2hcAAAAAYOhEJhvZbCtaCn4BAAAAABj+BL8AAAAAAJkR/AIAAAAAZEbwCwAAAACQGcEvAAAAAEBmBL8AAAAAAJkR/AIAAAAAZEbwCwAAAACQGcEvAAAAAEBmBL8AAAAAABnp7OwU/AIAAAAA5EbwCwAAAACQGcEvAAAAAEBGbr75ZsEvAAAAAEBODjroIMEvAAAAAEBuBL8AAAAAAJlpmzRpUuf8a24oF/s2qqMtdXZ2lkuD6/a7lqUPfvrKdO+Dj5ZrnvXx016TXvfyF5VLAAAAAAB5a2trSytWNpfNzr7yiuEV/B72rgvKudacf8a0dORLxpVLAAAAAAB5aTX41eoBAAAAACAzw7bVAwAAAAAAXTbpVg+h1XYP2jwAAAAAALnT6mGQxQ2uT5dddlm55VnHH398mj9/frm0thkzZvT4nmXLlhXHi9ehdP755xfTcDGY96CncYl1cc4YFwAAAADIheC3SRHWRkC4ePHiouq5mhYuXFju8awzzzwzzZo1q1wa3k455ZR09tlnl0vr6ivE7o/ejhfBa9zfoRRjOm7cuGIcL7zwwnItAAAAAGz6BL9NuO2229L06dPTAw88kA488MBybZeeAsNjjjkmXXTRRUNevdsfO++8czrjjDMGNNxtVVVxHPd3KN13331pzz33LJcAAAAAIB+C3ybMnDkzXXrppUVI2psITuttCs4777w0d+7cYr6/qirjaqoHydX5qinC6Uq8LypoI1CNbVVrid6ON23atHUqlON4sc9VV12VpkyZUszXz1G1SIipsU1CT+fp63hnnXVW0xW31XHimNXx68eqq19jdQ8qsS0qnWOK7Rsz+AYAAACAgda+//77l7P0Jqp3x48fXy4159hjj02XX355udS6CCLj/VVLiXnz5pVburZFeFpti/YTBx100FrBcFzzrrvuWmw/+eST+zxeTxXKUdkc+x133HHFvjFfVTtHaHrSSSd1HytUVbu9naev4/XHqaeeutY5Gr/+uMajjz66e5+o7o3QuTJ79uwinI8ptsc9AAAAAIBctO+www7lLH3ZZZddyrmeRXAYAWJVFVyFmj1Vojbj/vvvL/rPVuL41bEvuOCCIuytxLmiXUO9wjgC1gh8K30dLzRboRzBbhynfuzTTz+9u0/w+s4zUC655JJyrusc9a8/rjFEJXGlPg8AAAAAObvnkfbUfuONN5aL9GXp0qXlXPOiKnbOnDnlUmsiWI0q3J7aGETlalS4Vm0MYop96+rha+jreKHZCuUIdqvjVFNcS2V95xkojWFy9OqNqt4Q1xjVvo0iDAcAAACA3P3i7hF6/DYjAsP+BL9Tp07troRtVj3QjAriqo1DBKl18SC0qo1BNdWrcHvS1/FaqVCu2iM0TpWY7+08gylaWwAAAADAc90jT7UJfpsRlbvRU7dVEeJGC4Kq9UCYOHFiWrhwYbn0rEWLFhX7Nqr3xq0eUBbzsX9/9HS8SjMVymPHjk3XXXddudS7vs4zEOr9fENcU1xb6OkaY/96j18AAAAAyJngtwlRSRuhbE/VqzNmzCheI9yN7Y2B5LRp09KsWbPKpa4q4GiFUA9D4z0RLMe+ldjeeKwq2KyC6Pr26uFqvenreJWeKpSjZUS0TqhEP90IUOvni+NWX8/6ztN4vPWJY8V9rYfn4dxzzy3nus4Z4tqq17jGan2o7w8AAAAAuRP8NunCCy9M8+bNK0LI+hQPNutLhJBLlizpDkOjCjjaNEyfPr37GGPGjClaI1TBZSXWV/tE2FttjyD60ksvXWt7M3o7XiWuLdo41EPWCKOra63aQEQlbwTE1bHiuBEaV/o6T0/H6484TnWOON7s2bPLLV0a73GMU1QfAwAAAMBzQdukSZM6519zQ7nYt1EdbUXoN5imfOBz6fEnV5RL6/f5D52YJuy3e7k0PFWVp+vrwTscRBg7c+bMIugejuL6onfwYH8fAgAAAMBwEsWNK1Y2l4m946NXDr+K3/M+MC1ts9Wocqlv7znhiGEf+oaoho3q001B9OaNCuUNqcYFAAAAADautje/+c2dl339O+Vi34ai4hf6ouIXAAAAgOeilit+99lnn3IRhr+oSBb6AgAAAEDf2m+88cZyFgAAAACAHAy7Hr8AAAAAAGwYwS8AAAAAQGYEvwAAAAAAmRH8AgAAAABkRvALAAAAAJAZwS8AAAAAQGba999//3IWAAAAAIActO+www7lLAAAAAAAOWi/8cYby1kAAAAAAHKgxy8AAAAAQGYEvwAAAAAAmRH8AgAAAADkpLNT8AsAAAAAkBvBLwAAAABAZgS/AAAAAACZEfwCAAAAAGRG8AsAAAAAkJHnjRb8AgAAAABk5eBHFwt+AQAAAABystVN16a2SZMmdc6/5oZyVd9GdbSlzs7Ocmlw3X7XsvTBT1+Z7n3w0XLNsz5+2mvS617+onIJAAAAACBvbW1tacXK5rLZWUceNryC38PedUE515rzz5iWjnzJuHIJAAAAACAvrQS/V136Fa0eAAAAAACyssMOw7fVAwAAAAAAXVqq+L1q1vALfltt96DNAwAAAACQu1aDX60eWhQ3uD5ddtll5ZZnHX/88Wn+/Pnl0tpmzJjR43uWLVtWHC9eh9L5559fTBtT3I/6Pe3t3m2onsYl1sU5Y1wAAAAAIBeC3yZV4eTixYuLqudqWrhwYbnHs84888w0a9ascml4O+WUU9LZZ59dLq2rrxC7P3o63n333dd9Px944IE0ZcqUQQt/62JMx40bV5z3wgsvLNcCAAAAwKZP8NuE2267LU2fPr0IJQ888MBybZeeAsNjjjkmXXTRRUNevdsfO++8czrjjDOGJGjtzVlnnVXOdV3Peeedl2699dZyzeCJwHnPPfcslwAAAAAgH4LfJsycOTNdeumlRSjZmwhOoyK4CnsjvJw7d24x31+NLRDqQXJ1vmqKcLoS74vWBdHCIbbFcrW+/p7qeNOmTVunQjmOF/tcddVVRQVuzNfPUbVIiKmxTUJP51nf8ZpVHSeOWR2/t2PVr7G6B5XYFpXOMcX2jRl8AwAAAMBAE/w2Iap3x48fXy4159hjj02XX355udS6CCLj/VULhHnz5pVburZFeFpti/YTBx100FrBcFzzrrvuWmw/+eST+zxeTxXKUdkc+x133HHFvjFfVTtHaHrSSSd1HytUfYJ7O09fx2t03XXXpQkTJpRLPTv11FPXOkfj1x/XePTRR3fvE9W9ETpXZs+eXYTzMcX2uAcAAAAAkAvBb5N22WWXcq5nERxGgFhVBVehZn+qWsP9999f9J+txPGrY19wwQVF2FuJc0W7hnqFcQSsEfhW+jpeaLZCOYLdOE792Keffnp3n+D1nWd9ono43r++IPaSSy4p57rOUf/64xpDvYVEfR4AAAAAcif4bdLSpUvLueZFVeycOXPKpdZEsBpVuD21MYjK1ahwrdoYxBT71tXD19DX8UKzFcoR7FbHqaa4lsr6ztOXqNINzTxorTFMjl69UdUb4hqj2rdRhOEAAAAA8Fwg+G1CBIb9CX6nTp3aXQnbrHqgGRXEVRuHCFLr4kFzVRuDaqpX4fakr+O1UqFctUdonCox39t5elL16z3zzDObCn17E60tAAAAAADBb1Oicjd66rYqQtxoQVC1HggTJ05MCxcuLJeetWjRomLfRvXeuNUDymI+9u+Pno5XaaZCeezYsUUP3vXp6zyNxowZUwTF62vvUFfv5xvimuLaQk/XGPvXe/wCAAAAQM4Ev02IStoIZXuqXo2etCHC3djeGEhOmzYtzZo1q1zqqgKOVgj1MDTeE8Fy7FuJ7Y3HqoLNKoiub68ertabvo5X6alCOVpGROuESoSzEaDWzxfHrb6e9Z2n8Xhx3+LeVhXHjeJYcV/r4Xk499xzy7muc4YqOK6usVof6vsDAAAAQO7aX/bSl5Wz9CVaEMybN68IIetTPNisLxFCLlmypDsMjSrgaNMwffr07mP0VvEa66t9IuyttkcQfemll661vRm9Ha8S1xZtHOoha4TR1bVWbSCikjcC4upYcdwIjSt9nafxeD31DK6mvsRxqv3ieLNnzy63dGm8xzFOUX0MAAAAAM8Fbe9+17s7P/u5i8vFvo3qaCtCv8E05QOfS48/uaJcWr/Pf+jENGG/3cul4amqPF1fD97hIMLYmTNnblCv3cEU1xe9gwf7+xAAAAAAhpMoblyxsrlM7KqrZqX2X//m1+Xi8HDeB6albbYaVS717T0nHDHsQ98Q1bBRfbopiJYLUaHczEPeAAAAAIDhqW3SpEmd86+5oVzs21BU/EJfVPwCAAAA8FzUcsVvOQ+bhKhIFvoCAAAAQN8EvwAAAAAAmRH8AgAAAABkRvALAAAAAJCRzl/eJvgFAAAAAMhJ5/XXCn4BAAAAAHLS+dhjgl8AAAAAgJyMOP29gl8AAAAAgKzsNFrwCwAAAACQG8EvAAAAAEBmBL8AAAAAAJlp7+joKGcBAAAAAMhB+4QJE8pZAAAAAABy0H7rrbeWswAAAAAA5KB9VWc5BwAAAABAFtpHj9PqAQAAAAAgJ+2P3ndHOQsAAAAAQA7aVz5yfzkLAAAAAEAO2stXAAAAAAAyIfgFAAAAAMiM4BcAAAAAIDNtkyZN6px/zQ3lYt9GdbSlzs7Ocmlw3X7XsvTBT1+Z7n3w0XLNsz5+2mvS617+onIJAAAAACBvbW1tacXK5rLZq66aNbyC38PedUE515rzz5iWjnzJuHIJAAAAACAvrQa/Wj0AAAAAAGRm2LZ6AAAAAACgyybd6iG02u5BmwcAAAAAIHdaPQyyuMH16bLLLiu3POv4449P8+fPL5fWNmPGjB7fs2zZsuJ48TqUzj///GLamOL89Xt62223lVsGVk/jEuvinDEuAAAAAJALwW+TIqyNgHDx4sVF1XM1LVy4sNzjWWeeeWaaNWtWuTS8nXLKKenss88ul9bVV4jdHz0db9ddd+2+n3F/DzrooCEJwGNMx40bV5z3wgsvLNcCAAAAwKZt9Xe+JfhtRlSgTp8+PT3wwAPpwAMPLNd26SkwPOaYY9JFF1005NW7/bHzzjunM844Y0DD3VadfPLJ5Vwq7u9xxx2XFi1aVK4ZPPfdd1/ac889yyUAAAAAyEPn724X/DZj5syZ6dJLLy1C0t5EcBoVwVXYe95556W5c+cW8/1VVRlXUz1Irs5XTfX2CPG+aF1QtVCoWkv0drxp06atU6Ecx4t9rrrqqjRlypRivn6OqkVCTI1tEno6z/qO12iXXXYp59ZWHSeOWR2/t2PVr7G6B5XYFpXOMcX2jRl8AwAAAMBAahv/EsFvM6J6d/z48eVSc4499th0+eWXl0utiyAy3l+1QJg3b165pWtbhKd9tUeIa65aKERFbV/H66lCOSpvY7+ovo19Y76qdo7Q9KSTTuo+Vqj6BPd2nr6OVxcBbbRf6Glb3amnnrrWORq//rjGo48+unufqO6N0Lkye/bsIpyPKbbHPQAAAACAHLS/4mjBb7N6q0CtRHAYAWJVFVwFl31Vtfbl/vvvLwLQShy/OvYFF1xQhL2VOFe0a6hXGEfAWm+h0NfxQrMVyhHsxnHqxz799NO7+wSv7zw9qap4Y4qAtpl+u5dcckk513WO+tcf1xjOOuus4jXU5wEAAAAga1ttJfht1tKlS8u55kVV7Jw5c8ql1kSwGlW4EYY2hsdRuRoVrlVYGlPsW1cPX0NfxwvNVihHsFsdp5riWirrO09PqmrgmCZMmNDUexvD5OjVG6FxiGuMat9GEYYDAAAAwHOB4LcJERj2J/idOnVqdyVss+qBZgShVRuHCEPr4kFzVVhaTfUq3J70dbxWKpSr9giNUyXmezvP+kT1bvRTjr7KrYrWFgAAAADwXBf5nOC3CVG5Gz11WxUhbrQgqFoPhIkTJ6aFCxeWS89atGhRsW+jqho2wufqAWUxH/v3R0/HqzRToTx27Nh03XXXlUu96+s8A6HezzfENcW1hZ6uMfav9/gFAAAAgFzdsOA6wW8zopI2QtmeqldnzJhRvEa4G9sbA8lp06alWbNmlUtdVcDRCqEehsZ7IliOfSuxvfFYVbBZBdH17dXD1XrT1/EqPVUoR8uIaJ1QiYrcCFDr54vjVl/P+s7TeLy4b/VgPN47ffr0om9wtRz3tb5POPfcc8u5rnOGuLbqNa6xWh/q+wMAAABAzqINquC3SfHAsXnz5hUhZH2qAsreRAi5ZMmS7jA0qoCjTUOEm9UxxowZU7RGqILLSqyv9omwt9oeQXS0Q6hvb0Zvx6vEtUUbh3rIGmF0da1VG4io5I2AuDpWHDdC40pf52k83sEHH1yE2PVjxb2oWk/0Jo5TvSeON3v27HJLl8Z7HOMU1ccAAAAA8FzQNmnSpM7519xQLvZtVEdbEfoNpikf+Fx6/MkV5dL6ff5DJ6YJ++1eLg1PVeXp+nrwDgcRxkZ/3Qi6h6O4vugdPNjfhwAAAAAwnERx44qVzWVic67+/vCr+D3vA9PSNluNKpf69p4Tjhj2oW+IatioPt0URKVtVCg385A3AAAAAGB4GnYVv9AXFb8AAAAAPBdt8hW/0JeoSBb6AgAAAEDfBL8AAAAAAJkR/AIAAAAAZEbwCwAAAACQGcEvAAAAAEBmBL8AAAAAAJkR/AIAAAAAZEbwCwAAAACQGcEvAAAAAEBmBL8AAAAAAJkR/AIAAAAAZEbwCwAAAACQGcEvAAAAAEBmBL8AAAAAAJkR/AIAAAAAZEbwCwAAAACQmfaUtipnAQAAAADIQfuIsc8rZwEAAAAAyEH73rttU84CAAAAAJCD9jGbP1POAgAAAACQg/b01P3lLAAAAAAAOWg7ddqkzs99+4ZysW+jOtpSZ2dnuTS4br9rWfrgp69M9z74aLnmWR8/7TXpdS9/UbkEAAAAAJC3tra2tGJlc9nsnKu/n9qmTJrUOfua4RH8HvauC8q51px/xrR05EvGlUsAAAAAAHlpNfhtH3/44eUiAAAAAAA5aHvTm9/U+fWvX1Eu9m0oWz0AAAAAANCl5VYPkyZN6pw/TFo9hFbbPWjzAAAAAADkruVWD+U8TYobXJ8uu+yycsuzjj/++DR//vxyaW0zZszo8T3Lli0rjhevQ+n8888vpuEi7k3ch8HQ07jEujhfjAsAAAAA5ELw26QqkFy8eHFR9VxNCxcuLPd41plnnplmzZpVLg1vp5xySjr77LPLpXX1FWL3R1/Hi9B7+vTp5dLgizEdN25cMY4XXnhhuRYAAAAANn2C3ybcdtttRSD5wAMPpAMPPLBc26WnwPCYY45JF1100ZBX7/bHzjvvnM4444wBDXf76ytf+Uq69NJLy6XBd99996U999yzXAIAAACAfAh+mzBz5swikIyQtDcRnNZbNZx33nlp7ty5xXx/VVXG1VQPkqvzVVOE05V4X7QuiBYOsS2Wq/X191THmzZt2joVynG82Oeqq65KU6ZMKebr56haJMTU2Cahp/Os73jx9dx1111p6tSp5ZqeVceJY1bHbzxWpX6N1T2oxLaodI4ptg+H4BsAAAAABorgtwlRvTt+/PhyqTnHHntsuvzyy8ul1kUQGe+vWkrMmzev3NK1LcLTalu0nzjooIPWCobjmnfddddi+8knn9zn8XqqUI7K5tjvuOOOK/aN+araOULTk046qftYoeoT3Nt5+jpenDe+nn/8x38slptx6qmnrnWOxq8/rvHoo4/u3ieqeyN0rsyePbsI52OK7XEPAAAAACAXgt8m7bLLLuVczyI4jACxqgquQs2eKlGbcf/99xf9Zytx/OrYF1xwQRH2VuJc0a6hXmEcAWsEvpW+jhearVCOYDeOUz/26aef3t0neH3n6UmEuBHerm+/uksuuaSc6zpH/euPawxnnXVW8Rrq8wAAAACQO8Fvk5YuXVrONS+qYufMmVMutSaC1ajC7amNQVSuRoVr1cYgpti3rh6+hr6OF5qtUI5gtzpONcW1VNZ3nkZRKRyVuRHetqIxJI5evVHVG+Ia45iNIgwHAAAAgNxFgargtwkRGPYn+I1+tVUlbLPqgWYMUNXGIYLUunjQXGyvT/Uq3J70dbxWKpSr9giNUyXmeztPXbRmqPfZjWnMmDHFtpivKnebFa0tAAAAAAAVv02Jyt3oQduqCHGjBUE9wJw4cWJauHBhufSsRYsWFfs2qvfGrR5QFvOxf3/0dLxKMxXKY8eOTdddd1251Lu+zlOJ+xP71KcItEPM91UFXO/nG+Ka4tpCT9cY+9d7/AIAAABAzgS/TYhK2ghle6penTFjRvEa4W5sbwwkp02blmbNmlUudVUBRyuEehga74lgOfatxPbGY1XBZhVE17dXD1frTV/Hq/RUoRwtI6J1QiXC2AhQ6+eL41Zfz/rO03i89Ylj9VT9e+6555ZzXecMVVBcXWO1PtT3BwAAAIDcCX6bdOGFFxYPIIsQsj7Fg836EiHkkiVLusPQqHKNqtbp06d3HyPaG0RrhMYK11hf7RNhb7U9guhLL710re3N6O14lbi2aONQD1kjjK6utWoDEdW4je0ZIjSu9HWeno7XH3Gc6hxxvNmzZ5dbujTe4xinqD4GAAAAgOeCtkmTJnXOv+aGcrFvozraitBvME35wOfS40+uKJfW7/MfOjFN2G/3cml4qipP19eDdziIMHbmzJlF0D0cxfVF7+DB/j4EAAAAgOEkihtXrGwuE7v6B98bfhW/531gWtpmq1HlUt/ec8IRwz70DVENG9Wnm4LozRsVyhtSjQsAAAAAbFzDruIX+qLiFwAAAIDnok2+4hf6EhXJQl8AAAAA6JvgFwAAAAAgM4JfAAAAAIDMCH4BAAAAADIj+AUAAAAAyIzgFwAAAAAgM4JfAAAAAIDMCH4BAAAAADIj+AUAAAAAyIzgFwAAAAAgM4JfAAAAAIDMtKeOHctZAAAAAABy0P7S8S8oZwEAAAAAyEH7yvt+Xc4CAAAAAJCD9sV3PVrOAgAAAACQAw93AwAAAADIjOAXAAAAACAzgl8AAAAAgMwIfgEAAAAAMiP4BQAAAADIjOAXAAAAACAzbZMmTeqcf80N5WLfRnW0pc7OznJpcN1+17L0wU9fme598NFyzbM+ftpr0ute/qJyCQAAAAAgb21tbWnFyuay2at/8L3hFfwe9q4LyrnWnH/GtHTkS8aVSwAAAAAAeWk1+NXqAQAAAAAgM8O21QMAAAAAAF026VYPodV2D9o8AAAAAAC50+phkMUNrk+XXXZZueVZxx9/fJo/f365tLYZM2b0+J5ly5YVx4vXoXT++ecX08YU96PxvvZ2/zZET+MS6+J8MS4AAAAAkAvBb5OqcHLx4sVF1XM1LVy4sNzjWWeeeWaaNWtWuTS8nXLKKenss88ul9bVV4jdHz0d77777kuXXnrpWvf1mGOOKbcOnhjTcePGFee78MILy7UAAAAAsOkT/DbhtttuS9OnT08PPPBAOvDAA8u1XXoKDCO0vOiii4a8erc/dt5553TGGWcMSoVts+666640duzYcmnoROC85557lksAAAAAkA/BbxNmzpxZVKRGSNqbCE6jIrgKe88777w0d+7cYr6/Glsg1IPk6nzVFOF0Jd4XrQuihUNsi+Vqff091fGmTZu2ToVyHC/2ueqqq9KUKVOK+fo5qhYJMTW2SejpPOs7XrOq48Qxq+P3dqz6NVb3oBLbotI5pti+MYNvAAAAABho7QftuV05S2+ienf8+PHlUnOOPfbYdPnll5dLrYsgMt5ftT6YN29euaVrW4Sn1bZoP3HQQQetFQzHNe+6667F9pNPPrnP4/VUoRyVzbHfcccdV+wb81W1c4SmJ510UvexQtUnuLfz9HW8JUuWdIfBzYawp5566lrnaPz64xqPPvro7n2iujdC58rs2bOLcD6m2D4UrSUAAAAAYKi0d+y6fzlLX3bZZZdyrmcRHEaAWFUFV6Fmf6paw/3331/0n63E8atjX3DBBUXYW4lzRbuGeoVxBKwR+Fb6Ol5otkI5Qtk4Tv3Yp59+enef4PWdpycRwlYBbXxdEQKvL/y95JJLyrmuc9S//uq9Z511VvEa6vMAAAAAkLv2n/3it+UsfVm6dGk517yoip0zZ0651JoIVqMKNypgG8PjqFyNCteqQjam2LeuHr6Gvo4Xmq1QjmC3Ok41xbVU1nee9YkQO9pqrO/heI1hcvTqjareENcY1b6NIgwHAAAAgNxFgWV7WvmncpHeRGDYn+B36tSp3ZWwzaoHmlUFbBXy1sWD5qoq2WqqV+H2pK/jtVKhXLVHaJwqMd/beZrR3we9RWsLAAAAAMDD3ZoSlbvRfqBVEeJGC4J624KJEyemhQsXlkvPWrRoUbFvowhkI0iN8Ll6QFnMx/790dPxKs1UKEcoe91115VLvevrPOsTFbtRwduXej/fENdUBcY9XWPsX+/xCwAAAAA5E/w2ISppI5TtqXp1xowZxWuEu7G9MZCcNm3aWm0Logo4WiHUw9B4TwTLsW8ltjceqwo2qyC6vr16uFpv+jpepacK5WgZEUFsJfrpRoBaP18ct/p61neexuPFvvVjRcXx9OnTi9YTIbbHfW3s+XvuueeWc13nDHFt1WtcY7U+1PcHAAAAgNwJfpt04YUXpnnz5hUhZH2KB5v1JULIJUuWdIehUQUcbRoi3KyOMWbMmKI1QhVcVmJ9tU+EvdX2CKKjD259ezN6O14lri3aONRD1gijq2ut2kBEJW8ExNWx4rgRGlf6Ok/j8eKc9WNFe4i4P1Xrid7Ecar3xPHiAXF1jfc4ximqjwEAAADguaBt0qRJnfOvuaFc7NuojrYi9BtMUz7wufT4kyvKpfX7/IdOTBP2271cGp6qytP19eAdDiKMnTlzZhF0D0dxfREOD/b3IQAAAAAMJ1HcuGJlc5nYD6767vCr+D3vA9PSNluNKpf69p4Tjhj2oW+IatioPt0URKVtVChX1b0AAAAAwKZn2FX8Ql9U/AIAAADwXLTJV/xCX6IiWegLAAAAAH0T/AIAAAAAZEbwCwAAAACQGcEvAAAAAEBmBL8AAAAAAJkR/AIAAAAAZEbwCwAAAACQGcEvAAAAAEBmBL8AAAAAAJkR/AIAAAAAZEbwCwAAAACQGcEvAAAAAEBmBL8AAAAAAJkR/AIAAAAAZEbwCwAAAACQGcEvAAAAAEBmBL8AAAAAAJkR/AIAAAAAZEbwCwAAAACQGcEvAAAAAEBmBL8AAAAAAJkR/AIAAAAAZEbwCwAAAACQGcEvAAAAAEBmBL8AAAAAAJkR/AIAAAAAZEbwCwAAAACQGcEvAAAAAEBmBL8AAAAAAJkR/AIAAAAAZEbwCwAAAACQGcEvAAAAAEBmBL8AAAAAAJkR/AIAAAAAZEbwCwAAAACQGcEvAAAAAEBmBL8AAAAAAJkR/AIAAAAAZEbwCwAAAACQGcEvAAAAAEBmBL8AAAAAAJkR/AIAAAAAZEbwCwAAAACQGcEvAAAAAEBmBL8AAAAAAJkR/AIAAAAAZEbwCwAAAACQGcEvAAAAAEBmBL8AAAAAAJkR/AIAAAAAZEbwCwAAAACQGcEvAAAAAEBGOjs7Bb8AAAAAALkR/AIAAAAAZEbwCwAAAACQGcEvAAAAAEBmBL8AAAAAAJkR/AIAAAAAZORnP/uZ4BcAAAAAICcHHHCg4BcAAAAAICebL14k+AUAAAAAyEnngusFvwAAAAAAWXnmGcEvAAAAAEBORpz9IcEvAAAAAEBuBL8AAAAAAJkR/AIAAAAAZEbwCwAAAACQGcEvAAAAAEBmBL8AAAAAAJkR/AIAAAAAZEbwCwAAAACQGcEvAAAAAEBmBL8AAAAAAJkR/AIAAAAAZEbwCwAAAACQGcEvAAAAAEBGVl8zX/ALAAAAAJCTzpt/KvgFAAAAAMhJ234vFPwCAAAAAOSk7chXCH4BAAAAAHLStuNOgl8AAAAAgNwIfgEAAAAAMnLLLTcLfgEAAAAAcnLggS8S/AIAAAAA5GSLLbYQ/AIAAAAA5EbwCwAAAACQGcEvAAAAAEBmBL8AAAAAAJkR/AIAAAAAZEbwCwAAAACQGcEvAAAAAEBGOjs7Bb8AAAAAALkR/AIAAAAAZEbwCwAAAACQmZaC346OjrR8+fJyCQAAAACAwRaZbGSzrWgp+D3ssMPS3LlzyyUAAAAAAAZbZLKRzbaipeD3tNPem8455xxVvwAAAAAAQyCy2MhkI5ttRUvB74lve0c66qij05FHHpm+//3vC4ABAAAAAAZBZK+RwUYWG5lsZLOtaJs0aVLn/GtuKBeb861vfj1dfPEX0k033ZRWrlxZrgUAAAAAYCBET99o7xCVvq2GvrOvvKJ/wS8AAAAAAMNTBL8ttXoAAAAAAGD4E/wCAAAAAGRG8AsAAAAAkBnBLwAAAABAZgS/AAAAAACZEfwCAAAAAGRG8AsAAAAAkBnBLwAAAABAZgS/AAAAAACZEfwCAAAAAGRG8AsAAAAAkBnBLwAAAABAZgS/AAAAAACZEfwCAAAAAGRG8AsAAAAAkBnBLwAAAABAZgS/AAAAAACZEfwCAAAAAGSmX8HvqI629Pd/N6NcAgAAAABgOFHxCwAAAACQGcEvAAAAAEBmBL8AAAAAAJkZ1OD3ySefTBdccH564wnHF32Bq97AP114U7nH2u688470z//0se593/3uU4p94z2xXBfHjO0AAAAAAKxt0ILfCHFfPeWo9O1vfSMdd9zr04IFP0nfueL76ZFHH0lHHnl4uvba+eWeXWL/k97+ljRnzg/SJf95abr5lsXpiMNfnmbMeH/6/e+XlHsBAAAAALA+bZMmTeqcf80N5WJzovr2/e8/I/3rv11YrllXVOneeOOP0+Xf+E7ae+/nlWu7xLbPfvaidPfdD6TRO+/cvS72nzXr6u51IQLhF+63TzG/YmVn8QoAAAAAQM9mX3nF4FT8PrhsWRHsvutdp68T+oa3v/0dxevi2xYVr/X966FviPdHyAwAAAAAQHMGJfhd+sDS4vWIl08qXhu9bOJhxev9999fvFb7jx//kuIVAAAAAID+G9SHu7Vqy622KucAAAAAAOivQQl+t9566+L1xv/5cfHa6KcLbypex44dW7xWFi36RTm3tnggHAAAAAAAzRmU4Lfqy/vlL88sHs7W6Bvf+Ho65JBD08SJhxfLL37xgcXyt755eXryySeLdZVrr52fLrv0q+USAAAAAADr0zZp0qTO+dfcUC42Z1RHW3rta49LJ77tpHLNsw4+eHwR5Ebge9Lb31Ksi4e2Rf/e6OV77TXziwe5LVjwk+5evyGqgI888vDiuO8+7T1plzG7pBt+vCB9+1vfSAe86MVF+LtiZWe5d0pvPOH4tONOO6Uvfekr5RoAAAAAAGZfeUX/K36vvvqqdOpfTl9nqto1RNXvrFlXp7ee+Pai8jdC3U/+n39O2223XfrNb/+wVugbYjnC4Ahz3/LmNxT7P/7YY8Uxtt9u+3IvAAAAAADWp18Vv0Pt7/9uRvr975ek735vdrkGAAAAAICebFDF71CJnr/RGmLChEPKNQAAAAAA9GXYB79f/OLnitcjX3FU8QoAAAAAQN+GTauHf/6nj6Vttt02jR27a7kmpZ/9dGFR7fupfzkvnXnmWeVaAAAAAAB6M6xaPURF79133bXWg+LC1XPmCX0BAAAAAFqwSTzcDQAAAACA5mwSD3cDAAAAAKA1gl8AAAAAgMwIfgEAAAAAMiP4BQAAAADIjOAXAAAAACAzgl8AAAAAgMwIfgEAAAAAMiP4BQAAAADIjOAXAAAAACAzgl8AAAAAgMy0TZo0qXP+NTeUi8351je/ni6++AvppptuSitXrizXAgAAAAAwEDo6OtJhhx2WTjvtvenEt72jXNuc2Vde0Xrw+5EPn5Wuv/669NGPfjRNnTo1bbHFFuUWAAAAAAAGwvLly9PcuXPTOeeck4466uj0yU+dX25Zvytnfae1Vg9R6Ruh74IFC9Ib3vAGoS8AAAAAwCCI7DUy2MhiI5ONbLYVLQW/0d4hKn0FvgAAAAAAgy+y2MhkI5ttRUvBb/T0jfYOAAAAAAAMjchkI5ttRUvBbzzITbUvAAAAAMDQiUw2stlWtBT8AgAAAAAw/Al+AQAAAAAyI/gFAAAAAMiM4BcAAAAAIDOCXwAAAACAzAh+AQAAAAAyI/gFAAAAAMiM4BcAAAAAIDOCXwAAAACAzAh+AQAAAAAyI/gFAAAAAMiM4BcAAAAAIDOCXwAAAACAzAh+AQAAAAAyI/gFAAAAAMiM4BcAAAAAIDOCXwAAAACAzAh+AQAAAAAyI/gFAAAAAMiM4BcAAAAAIDOCXwAAAACAzAh+AQAAAAAyI/gFAAAAAMiM4BcAAAAAIDOCXwAAAACAzAh+AQAAAAAyI/gFAAAAAMiM4BcAAAAAIDOCXwAAAACAzAh+AQAAAAAyI/gFAAAAAMiM4BcAAAAAIDOCXwAAAACAzAh+AQAAAAAyI/gFAAAAAMiM4BcAAAAAIDOCXwAAAACAzAh+AQAAAAAyI/gFAAAAAMiM4BcAAAAAIDOCXwAAAACAzAh+AQAAAAAyI/gFAAAAAMiM4BcAAAAAIDOCXwAAAACAzAh+AQAAAAAyI/gFAAAAAMiM4BcAAAAAIDOCXwAAAACAzAh+AQAAAAAyI/gFAAAAAMiM4BcAAAAAIDOCXwAAAACAzAh+AQAAAAAyI/gFAAAAAMiM4BcAAAAAIDOCXwAAAACAzAh+AQAAAAAyI/gFAAAAAMiM4BcAAAAAIDOCXwAAAACAzAh+AQAAAAAyI/gFAAAAAMiM4BcAAAAAIDOCXwAAAACAzAh+AQAAAAAyI/gFAAAAAMiM4BcAAAAAIDOCXwAAAACAzAh+AQAAAAAyI/gFAAAAAMiM4BcAAAAAICO33fZLwS8AAAAAQE523XU3wS8AAAAAQE62ufoHgl8AAAAAgKzce4/gFwAAAAAgJ20TDhX8AgAAAADkpH3ykYJfAAAAAICsbL654BcAAAAAICe/vf03gl8AAAAAgJwcsP8LBb8AAAAAALkR/AIAAAAAZEbwCwAAAACQGcEvAAAAAEBmBL8AAAAAAJkR/AIAAAAAZEbwCwAAAACQGcEvAAAAAEBmBL8AAAAAAJkR/AIAAAAAZEbwCwAAAACQGcEvAAAAAEBmBL8AAAAAAJkR/AIAAAAAZEbwCwAAAACQGcEvAAAAAEBmBL8AAAAAAJkR/AIAAAAAZEbwCwAAAACQGcEvAAAAAEBmBL8AAAAAAJkR/AIAAAAAZGTlyj8LfgEAAAAAciP4BQAAAADIjOAXAAAAACAzgl8AAAAAgMwIfgEAAAAAMiP4BQAAAADIjOAXAAAAACAjP/rtU4JfAAAAAIDcCH4BAAAAADLyh0eeEPwCAAAAAORG8AsAAAAAkBnBLwAAAABAZgS/AAAAAAA5efhPgl8AAAAAgNwIfgEAAAAAMrL5/f8j+AUAAAAAyMny5csFvwAAAAAAuRH8AgAAAABkRvALAAAAAJAZwS8AAAAAQGYEvwAAAAAAmRH8AgAAAABkRvALAAAAAJAZwS8AAAAAQGYEvwAAAAAAmRH8AgAAAABkRvALAAAAAJAZwS8AAAAAQGYEvwAAAAAAmRH8AgAAAABkRvALAAAAAJAZwS8AAAAAQGYEvwAAAAAAmRH8AgAAAABkRvALAAAAAJAZwS8AAAAAQGYEvwAAAAAAmRH8AgAAAABkRvALAAAAAJAZwS8AAAAAQGYEvwAAAAAAmRH8AgAAAABkRvALAAAAAJAZwS8AAAAAQGYEvwAAAAAAmRH8AgAAAABkRvALAAAAAJAZwS8AAAAAQGYEvwAAAAAAmRH8AgAAAABkRvALAAAAAJAZwS8AAAAAQGYEvwAAAAAAmRH8AgAAAABkRvALAAAAAJAZwS8AAAAAQGYEvwAAAAAAmRH8AgAAAABkRvALAAAAAJAZwS8AAAAAQGYEvwAAAAAAmRH8AgAAAABkRvALAAAAAJAZwS8AAAAAQGYEvwAAAAAAmRH8AgAAAABkRvALAAAAAJAZwS8AAAAAQGYEvwAAAAAAmRH8AgAAAABkRvALAAAAAJAZwS8AAAAAQGYEvwAAAAAAmRH8AgAAAABkRvALAAAAAJAZwS8AAAAAQGYEvwAAAAAAmRH8AgAAAABkRvALAAAAAJAZwS8AAAAAQGYEvwAAAAAAmRH8AgAAAABkRvALAAAAAJAZwS8AAAAAQGYEvwAAAAAAmRH8AgAAAABkRvALAAAAAJAZwS8AAAAAQGYEvwAAAAAAmRH8AgAAAABkRvALAAAAAJAZwS8AAAAAQGYEvwAAAAAAmRH8AgAAAABk5CU7Cn4BAAAAALKyz/hxgl8AAAAAgJyM3H53wS8AAAAAQE5Wjxwl+AUAAAAAyMkflvxB8AsAAAAAkJObb75d8AsAAAAAkJOJh79A8AsAAAAAkJO9tt1K8AsAAAAAkJPrr/254BcAAAAAICfLViXBLwAAAABAbgS/AAAAAACZEfwCAAAAAGRG8AsAAAAAkBnBLwAAAABARk6c+hLBLwAAAABATr419+eCXwAAAACA3Ah+AQAAAAAyI/gFAAAAAMiM4BcAAAAAIDOCXwAAAACAzAh+AQAAAAAycsyhYwW/AAAAAAA5ueOPDwl+AQAAAABysmTZKsEvAAAAAEBuBL8AAAAAAJkR/AIAAAAAZEbwCwAAAACQGcEvAAAAAEBmBL8AAAAAAJkR/AIAAAAAZEbwCwAAAACQGcEvAAAAAEBmBL8AAAAAAJkR/AIAAAAAZEbwCwAAAACQkcN3F/wCAAAAAGTlrgcEvwAAAAAAWblnleAXAAAAACA7gl8AAAAAgMwIfgEAAAAAMiP4BQAAAADIjOAXAAAAACAzgl8AAAAAgMwIfgEAAAAAMiP4BQAAAADIjOAXAAAAACAzgl8AAAAAgMwIfgEAAAAAMiP4BQAAAADIjOAXAAAAACAzgl8AAAAAgMwIfgEAAAAAMiP4BQAAAADIjOAXAAAAACAzgl8AAAAAgMwIfgEAAAAAMiP4BQAAAADIjOAXAAAAACAzgl8AAAAAgMwIfgEAAAAAMiP4BQAAAADIjOAXAAAAACAzgl8AAAAAgMwIfgEAAAAAMiP4BQAAAADIjOAXAAAAACAzgl8AAAAAgMwIfgEAAAAAMiP4BQAAAADIjOAXAAAAACAzgl8AAAAAgMwIfgEAAAAAMiP4BQAAAADIjOAXAAAAACAzgl8AAAAAgMwIfgEAAAAAMiP4BQAAAADIjOAXAAAAACAzgl8AAAAAgMwIfgEAAAAAMvLGV+wp+AUAAAAAyMmqFY8IfgEAAAAAcvLkQ48LfgEAAAAAcnLtEj1+AQAAAACyI/gFAAAAAMiM4BcAAAAAIDOCXwAAAACAzAh+AQAAAAAyI/gFAAAAAMiM4BcAAAAAIDOCXwAAAACAzAh+AQAAAAAyI/gFAAAAAMhMS8FvR0dHWr58ebkEAAAAAMBgi0w2stlWtBT8HnbYYWnu3LnlEgAAAAAAgy0y2chmW9FS8Hvaae9N55xzjqpfAAAAAIAhEFlsZLKRzbaipeD3xLe9Ix111NHpyCOPTN///vcFwAAAAAAAgyCy18hgI4uNTDay2Va0TZo0qXP+NTeUi8351je/ni6++AvppptuSitXrizXAgAAAAAwEKKnb7R3iErfVkPfY141uX/BLwAAAAAAw1MEvy21egAAAAAAYPgT/AIAAAAAZEbwCwAAAACQGcEvAAAAAEBmBL8AAAAAAJkR/AIAAAAAZEbwCwAAAACQGcEvAAAAAEBm2p9++um0bNkD5SIAAAAAAJuqhx58IK1atSq1r1ixIt1++2/L1QAAAAAAbKoef+LRdOQeK1L7ypUrBb8AAAAAABlYfOeydMBhr0jtjz76aLrs0q+mu+++q9wEAAAAAMCmJjLeT39zXmrfdY/UHv0e7rvv3vQfn72o3AwAAAAAwKYmMt77bnogPbrZzqk9Vjz88MPpmmvmpY98+GyVvwAAAAAAm5BHHn04fenDZxcZ75/u/3N6um1kGrHlllt+IjY+/vjj6Y9/vDNdM39eemb1M+mpp55Ko0aNSltttVXxZgAAAAAAhoc/PfhAuvXnt6b5P/ttunnh99L/fu2b6aYHHliz5UXpyOP2TW2jR4/uXKNr7zU233zztO2226aOjo60xRZbpBEjRpRbBlaEyitWrCiXYPDVv8+BLoPys3i3iek1h3Sku2YvSP9brFjzH5zjn5/S72enBV0retbf9/UpjrFnWnnLD9PCe2N5jzTxNS9JHXetOeYjPZ2vvm+sOjIdv+fKdMsPF6ZqVbeetvX4NXQd84lxx6c9V96Sfrhw+zXrdkoPrdnnkYmvSYd03JVm9/cL7O8923VimrrmfXdfVXvfcfuk9IerNuBel9Y59hq7HJqmvHSn9Mxjy9PTsdzekbbaemX6Y22fXSdOXXMv7k5X9XQBa+71cXusuddzF6b7ylX91t+vvZn3jRyXXn7MC9LI+25Lv1iyND3yxKpyQ//sNOGV6fDtH07XX7skjXvlUWnHR36Srr31oXJriGtY873U5L1euuZ4h478dfpt+0Fpz5HL0xar7kqLV++X9l91c8Nxe9PD+Yp1e6z5Hp+bFsbgNNynkXtMTEeN3zE9s+z2tOjWJemh6pY08T3R27j3eswNMHLr7dMu48anA3ddlW6f/z9pSSvH7Ok6e/x+qe5Twz2Ln0tTx6eOuzfg8zeY39f9EsfZK6365Zz0kzvKVWuJ7Q3fS63cs3X2XWNT+TnRsoavvf798qe+7lmxou/70uL37hP7Hpf2WPPfsbkLd1izrmv8/tTXz+5mDKv/zVBa59hrjH1p8TNr9aNPpeLHw5qfWVtvszLdWdtnt77+m77mXvf6vydaNWD37MXpFcfH9+fs9N+/LFas+WG4b5r06v3SyHsXp1/87v70p/p/x/raNoB2OvSY9LLNfpV+O+Lg7v9WLXpmv3TA0z9N82+u/lv14nTU60enB6+8PlWXnvadnI574er0q6v+J/0+lnc7LB176Kh0V32fFx+VXr/ninTznJtq4xDH2jOtuHlOuilW1t732613SNt2FH8kvZbVKx9r8uvfLR127KFp1F1XpuurixhzaDrmZVunpddfn257IqUDj5q25n8f3pyu/sk9Ke1+eHrtoWvGaNaabcXOB6ajpsXYzkrXP7Dmv5tr3nd/T+/rS1/H7FoxwOL4a/63781Xp+LS6uff9WXpNS8bnZ7p/hyNWvM5WpHu7L62EO9f8/Olvq7Hr6E6Rx/nK/Zd48Cj0rQ1n7+br/5Jqu7WyDVju92odbOu1SsfXTO2xf8y6dWBR6/53/TPLEkLb12eXjBpfBq9ckmafd26N/N5h78mjd/uT+mn8bnfbc11rfnan/jtnLTgV2uOv/WE9OpjRqc//fhH6WcPlm/oye5HpNe9tCP98fvXdX/tR79hXEpLvp96OOUGG/3SV6eJI/83/bp9fNpr5FNpy1V/TL9YvX960aqF6UfdFxrXsObz131NIdbtlVb+7AfpxmIcatf9glek1+//TPrllT/u+myW2+5as23xmvnjXjYq/fF716bFsS0dlF55wl5pxU+vSrfvOjUdNvKX6dcjXtJ9LT9/Zv/04lU3pVvSIb1um9t9nXGsNdfZfew11lzLtANWp1/OuiEtieV1zr/GQa9MJ+y1Iv30qhu7v1/q11V9fdX7ft3L99IzK+J7qZmfE7unlx8/MY2687vpmuoixqz5rBy+Tbr3mmvS4jWf94Ne9ca094qFafb/PHtFOxz0qvSKNR/lOxZck25+4Onid/oVe78u/e2btk23nPWv6bvFXm9KH/7sMen/B4kJGE4k8jvZAAAAAElFTkSuQmCC;" parent="1" vertex="1">
                    <mxGeometry x="1470" y="20" width="1406" height="868" as="geometry"/>
                </mxCell>
                <mxCell id="3" value="" style="rounded=0;whiteSpace=wrap;html=1;gradientColor=none;fillColor=none;strokeWidth=5;strokeColor=#f20d0d;" parent="1" vertex="1">
                    <mxGeometry x="1475.75" y="111" width="574" height="50" as="geometry"/>
                </mxCell>
                <mxCell id="7" value="1" style="text;html=1;strokeColor=default;fillColor=default;align=center;verticalAlign=middle;whiteSpace=wrap;rounded=0;fontSize=50;imageAspect=1;absoluteArcSize=0;recursiveResize=1;expand=1;strokeWidth=3;" parent="1" vertex="1">
                    <mxGeometry x="1709.75" y="50" width="60" height="52" as="geometry"/>
                </mxCell>
                <mxCell id="8" value="" style="rounded=0;whiteSpace=wrap;html=1;gradientColor=none;fillColor=none;strokeWidth=5;strokeColor=#f20d0d;" parent="1" vertex="1">
                    <mxGeometry x="2059.75" y="111" width="344" height="69" as="geometry"/>
                </mxCell>
                <mxCell id="9" value="" style="rounded=0;whiteSpace=wrap;html=1;gradientColor=none;fillColor=none;strokeWidth=5;strokeColor=#f20d0d;" parent="1" vertex="1">
                    <mxGeometry x="1475.75" y="210" width="1394" height="317" as="geometry"/>
                </mxCell>
                <mxCell id="10" value="" style="rounded=0;whiteSpace=wrap;html=1;gradientColor=none;fillColor=none;strokeWidth=5;strokeColor=#f20d0d;" parent="1" vertex="1">
                    <mxGeometry x="1476.25" y="560" width="1394" height="316" as="geometry"/>
                </mxCell>
                <mxCell id="11" value="2" style="text;html=1;strokeColor=default;fillColor=default;align=center;verticalAlign=middle;whiteSpace=wrap;rounded=0;fontSize=50;imageAspect=1;absoluteArcSize=0;recursiveResize=1;expand=1;strokeWidth=3;" parent="1" vertex="1">
                    <mxGeometry x="2196.75" y="50" width="60" height="52" as="geometry"/>
                </mxCell>
                <mxCell id="12" value="3" style="text;html=1;strokeColor=default;fillColor=default;align=center;verticalAlign=middle;whiteSpace=wrap;rounded=0;fontSize=50;imageAspect=1;absoluteArcSize=0;recursiveResize=1;expand=1;strokeWidth=3;" parent="1" vertex="1">
                    <mxGeometry x="2143.25" y="230" width="60" height="52" as="geometry"/>
                </mxCell>
                <mxCell id="15" value="4" style="text;html=1;strokeColor=default;fillColor=default;align=center;verticalAlign=middle;whiteSpace=wrap;rounded=0;fontSize=50;imageAspect=1;absoluteArcSize=0;recursiveResize=1;expand=1;strokeWidth=3;" parent="1" vertex="1">
                    <mxGeometry x="2143.25" y="580" width="60" height="52" as="geometry"/>
                </mxCell>
            </root>
        </mxGraphModel>
    </diagram>
</mxfile>